<svg viewBox="0 0 96 96" xmlns="http://www.w3.org/2000/svg" xmlns:xlink="http://www.w3.org/1999/xlink" id="Icons_Leaf" overflow="hidden"><path d="M45.5 20C30 20 17.5 32.5 17.5 48 17.5 52.9 18.8 57.5 21 61.5 23.1 59.3 25.4 57.1 27.9 54.7 34.2 48.8 41.6 42.8 47.8 38.4 48.2 38.1 48.6 37.9 49.1 37.9 50.2 37.9 51.1 38.8 51.1 39.9 51.1 40.6 50.8 41.1 50.3 41.5L50.3 41.5C41.4 47.9 29.6 57.8 21.6 66.8 21.6 66.8 20.5 68 20 68.6L20 68.6C15.5 73.9 12.5 78.7 12.5 82.1L18.5 82.1C18.5 79.9 22 75.1 27.3 69.4 32.2 73.6 38.5 76.1 45.5 76.1 50.5 76.1 55.3 74.8 59.4 72.4L59.4 72.4C80.8 60.5 83.5 38.6 83.5 14 83.5 14 60.2 20.4 45.5 20Z" fill="#2C6109"/></svg>